/* XPM */
static char *d2b97baee56d4c99ea48aea53c97e03aqq4KfO4pHCLw4qZz[] = {
/* columns rows colors chars-per-pixel */
"32 32 138 2 ",
"   c #656278",
".  c #68657A",
"X  c #7C627D",
"o  c #667373",
"O  c #757077",
"+  c #797D7A",
"@  c #83637D",
"#  c #827C77",
"$  c #A37E7F",
"%  c #75BA4F",
"&  c #78AF59",
"*  c #79B555",
"=  c #6C8D6A",
"-  c #6C9765",
";  c #6A9C62",
":  c #729867",
">  c #789F65",
",  c #708074",
"<  c #7C807B",
"1  c #7B8C7A",
"2  c #799977",
"3  c #7F9F78",
"4  c #82B857",
"5  c #93BB5F",
"6  c #838C7C",
"7  c #9A8B77",
"8  c #889C74",
"9  c #9F937E",
"0  c #89A56F",
"q  c #91A76C",
"w  c #88B560",
"e  c #8DBB68",
"r  c #92BE6A",
"t  c #96AC76",
"y  c #9AAA76",
"u  c #A6B06F",
"i  c #A7BE6E",
"p  c #A2C063",
"a  c #A6C975",
"s  c #A9CD71",
"d  c #BACE7D",
"f  c #BCD377",
"g  c #747382",
"h  c #7E7D8B",
"j  c #9B5F85",
"k  c #A65F88",
"l  c #B35E8D",
"z  c #B95D8E",
"x  c #8D6383",
"c  c #956283",
"v  c #9B6186",
"b  c #966C84",
"n  c #847D8D",
"m  c #8E7B8D",
"M  c #9B748E",
"N  c #917C8F",
"B  c #9E7B90",
"V  c #A46288",
"C  c #AA608A",
"Z  c #A16F8E",
"A  c #AC6B8E",
"S  c #B86E87",
"D  c #B5658F",
"F  c #BA628D",
"G  c #BD6E89",
"H  c #AA7B8D",
"J  c #B77B87",
"K  c #B9788A",
"L  c #C15D90",
"P  c #CD5D95",
"I  c #C2658F",
"U  c #CB678F",
"Y  c #C46B8E",
"T  c #C96D8C",
"R  c #D06B8F",
"E  c #C2768C",
"W  c #CF738B",
"Q  c #D7778E",
"!  c #C76291",
"~  c #CE6094",
"^  c #D36294",
"/  c #D46C91",
"(  c #DB6C93",
")  c #DF7192",
"_  c #E37592",
"`  c #E67992",
"'  c #E87E93",
"]  c #878C84",
"[  c #84868F",
"{  c #86898C",
"}  c #8A9182",
"|  c #919D80",
" . c #858490",
".. c #8B8491",
"X. c #8A8C92",
"o. c #968593",
"O. c #998696",
"+. c #978A94",
"@. c #9F8B97",
"#. c #9A8C99",
"$. c #909196",
"%. c #959A92",
"&. c #94939C",
"*. c #98969F",
"=. c #989C9E",
"-. c #A48A97",
";. c #A6B780",
":. c #ACBD86",
">. c #9D97A1",
",. c #9F9BA3",
"<. c #A29CA4",
"1. c #A1A0A6",
"2. c #A4A4A9",
"3. c #AAAAAD",
"4. c #ADACB0",
"5. c #B3B2B5",
"6. c #B7B6B9",
"7. c #BCBCBD",
"8. c #D28893",
"9. c #E98195",
"0. c #E78997",
"q. c #E98897",
"w. c #EB8D99",
"e. c #E4969B",
"r. c #ED959C",
"t. c #EE9A9F",
"y. c #EF9EA1",
"u. c #F0A5A3",
"i. c #F5B6AC",
"p. c #F7BCAF",
"a. c #F8BFB1",
"s. c #B2C383",
"d. c #BBCE84",
"f. c #BAD182",
"g. c #F8C1B2",
"h. c #BEBEC0",
"j. c #C2C2C2",
"k. c #CCCCCC",
/* pixels */
"k.k.k.k.k.k.k.k.k.k.k.k.k.k.k.k.k.k.k.k.k.k.k.k.k.k.k.k.k.k.k.k.",
"k.k.k.k.k.k.k.k.j.k.k.k.k.k.k.k.k.k.k.k.k.k.k.j.k.k.k.k.k.k.k.k.",
"k.k.k.k.k.k.k.j.j.j.k.k.k.k.k.k.k.k.k.k.k.k.j.j.j.j.k.k.k.k.k.k.",
"k.k.k.k.k.k.j.j.j.j.j.k.k.k.k.k.k.k.k.k.k.j.j.j.j.j.j.k.k.k.k.k.",
"k.k.k.k.k.j.j.7.j.j.j.j.k.k.k.k.k.k.k.k.j.j.j.j.j.j.j.j.k.k.k.k.",
"k.k.k.k.j.j.j.j.j.j.7.,.g       . 2.k.j.j.j.j.j.j.j.j.j.k.k.k.k.",
"k.k.k.h.j.j.j.j.j.j.h.1.g + < < < 1.h.j.j.j.j.j.j.j.j.j.j.k.k.k.",
"k.k.h.j.j.j.j.j.j.j.h.<.] s.f.d.i | &.6.j.j.j.j.h.j.j.j.j.j.j.k.",
"k.h.j.j.j.j.j.j.h.j.h.1.} d d s.d y n 5.j.j.j.j.j.j.j.j.j.j.j.j.",
"k.k.j.h.j.j.j.j.j.j.h.1.6 p q 6 f.u { 3.7.j.j.j.j.j.j.j.h.j.j.k.",
"k.k.k.j.j.j.j.j.j.j.7.,.1 4 > , e a :.%.3.7.j.j.h.j.j.j.j.k.k.k.",
"k.k.k.k.j.j.j.j.j.h.3.%.0 % ; o : r s y %.3.h.h.j.j.j.h.j.k.k.k.",
"k.k.k.k.k.j.j.j.j.7.$.8 5 * 2  .X.3 w u | -.4.7.j.j.j.k.k.k.k.k.",
"k.k.k.k.k.k.j.h.j.6.X.: & = =.7.7.=.+ J E A m 3.j.j.k.k.k.k.k.k.",
"k.k.k.k.k.k.k.k.5.*.B $ 7 O <.j.3.-.G / ( U S @.3.j.k.k.k.k.k.k.",
"k.k.k.k.k.k.k.j.<.$ I ^ I c >.5.N G ` ` 9.q.0.J o.6.j.k.k.k.k.k.",
"k.k.k.k.k.k.j.*.H Q _ ( ( ! Z x D / ` ' y.i.i.e.E m h k.k.k.k.k.",
"k.k.k.k.k.1.<.H 8.u.u.y.` P k @ I ( ` 9.u.a.g.y.Q @   k.k.k.k.k.",
"k.k.k.k.k.  @ W y.a.a.u.' ^ k x L ( ` ' y.i.i.r.W @   k.k.k.k.k.",
"k.k.k.k.k.  @ W y.p.p.u.` ^ k g L ( ` ` q.w.w.' W X   k.k.k.k.k.",
"k.k.k.k.j.  x W q.y.y.w._ ^ k x L ^ ( _ ` ` _ ) Y @   j.k.k.k.k.",
"k.k.k.j.j.  X T _ ' ' ` ( ^ z j l L ^ ( ) _ _ U A ..{ j.j.k.k.k.",
"k.k.k.j.j.. g F ( _ _ ( P P L z c C P P ~ ~ ~ V ..4.7.j.j.j.k.k.",
"k.j.j.j.j.<.<.M F ( ( ^ P P z M <.O.j j j j j @.3.h.j.j.h.j.h.k.",
"k.j.j.j.j.j.6.*.M F z z z z M >.h.3...{ [ ..{ 4.j.j.j.j.j.j.j.k.",
"k.k.j.j.j.j.j.7.,.X X X X X >.j.k.j.6.6.6.6.7.7.j.j.j.j.j.h.k.k.",
"k.k.k.k.h.j.j.j.1..         ,.k.k.k.k.h.j.j.j.j.j.j.j.h.h.k.k.k.",
"k.k.k.k.j.j.j.j.j.j.j.j.k.k.k.k.k.k.k.k.j.h.j.j.j.j.j.j.k.k.k.k.",
"k.k.k.k.k.j.j.j.j.j.j.k.k.k.k.k.k.k.k.k.j.j.j.j.h.j.j.k.k.k.k.k.",
"k.k.k.k.k.k.k.j.j.j.j.k.k.k.k.k.k.k.k.k.k.k.j.j.j.j.k.k.k.k.k.k.",
"k.k.k.k.k.k.k.j.j.j.k.k.k.k.k.k.k.k.k.k.k.k.k.h.j.k.k.k.k.k.k.k.",
"k.k.k.k.k.k.k.k.k.k.k.k.k.k.k.k.k.k.k.k.k.k.k.k.k.k.k.k.k.k.k.k."
};
