/* XPM */
static char *e6c3cb2f79054c44bc0bd71bf33f8b03xMXzfBzhaPY0TWZr[] = {
/* columns rows colors chars-per-pixel */
"32 32 120 2 ",
"   c #141B1B",
".  c #3D382D",
"X  c #54524C",
"o  c #665A44",
"O  c #7A6B50",
"+  c #6D6E6E",
"@  c #7E7971",
"#  c #7C7D7D",
"$  c #8B867E",
"%  c #908471",
"&  c #948978",
"*  c #A18D69",
"=  c #A39070",
"-  c #B09C79",
";  c #BBA37A",
":  c #FFAD5D",
">  c #FEAE62",
",  c #FBAF6A",
"<  c #FEB165",
"1  c #FBB16C",
"2  c #F7B174",
"3  c #FAB471",
"4  c #FAB975",
"5  c #F5B37D",
"6  c #F8B679",
"7  c #F7BC7E",
"8  c #F8BC7B",
"9  c #838484",
"0  c #8D8881",
"q  c #949391",
"w  c #9A9997",
"e  c #9D9D9C",
"r  c #A3A4A4",
"t  c gray68",
"y  c #B1B1B1",
"u  c #BCBCBC",
"i  c #C5AB80",
"p  c #CFB587",
"a  c #D2B789",
"s  c #EDB58A",
"d  c #EEBA8D",
"f  c #F3B585",
"g  c #F5BC83",
"h  c #F1B789",
"j  c #F3BC8A",
"k  c #EDBC93",
"l  c #E7BF9B",
"z  c #EBBD9C",
"x  c #F0BD91",
"c  c #DBBBA7",
"v  c #DABEAA",
"b  c #CDBFB7",
"n  c #CBBFB9",
"m  c #D2BEB1",
"M  c #E3BFA5",
"N  c #ECBFA1",
"B  c #DFC291",
"V  c #F5C286",
"C  c #F3C58C",
"Z  c #E5C795",
"A  c #EFC492",
"S  c #E6C896",
"D  c #EFC896",
"F  c #EBC59B",
"G  c #EECE9B",
"H  c #F0C592",
"J  c #F1C993",
"K  c #DEC1A5",
"L  c #D7C0AD",
"P  c #DCC5AC",
"I  c #DCC9AE",
"U  c #C6C2BF",
"Y  c #CBC3BC",
"T  c #D4C5B5",
"R  c #DEC4B3",
"E  c #D6C8B3",
"W  c #DCC9B4",
"Q  c #DAC5B9",
"!  c #D6CABF",
"~  c #DBCCBA",
"^  c #E4C4A4",
"/  c #E9C5A0",
"(  c #E5CBA5",
")  c #E9CBA3",
"_  c #E4C5AA",
"`  c #ECC4AD",
"'  c #E4CCAC",
"]  c #E8CFAA",
"[  c #EFD0A3",
"{  c #E1C7B3",
"}  c #ECC6B2",
"|  c #E1CDB1",
" . c #ECC8B4",
".. c #E4CBBF",
"X. c #F7CEBB",
"o. c #E8D0B1",
"O. c #E8D4BC",
"+. c #C3C3C3",
"@. c #CFC7C3",
"#. c #CCCCCC",
"$. c #D3CAC3",
"%. c #D8CDC2",
"&. c #DED3CD",
"*. c #D4D1D3",
"=. c #DFD7D7",
"-. c #DFD9DC",
";. c #E2CDC4",
":. c #E5D4C0",
">. c #EED2C8",
",. c #ECDACB",
"<. c #EFDED0",
"1. c #E2DBDD",
"2. c #F0DFDF",
"3. c #EFE3DF",
"4. c #F0E3DF",
"5. c #E7E1E6",
"6. c #EDE6EC",
"7. c #F0E5E7",
"8. c #F1E8ED",
"9. c #F1E9F0",
/* pixels */
"#.#.#.#.#.#.#.#.#.#.#.#.#.#.*.#.#.#.#.#.#.#.#.#.#.#.#.#.#.#.#.#.",
"#.#.#.#.#.#.#.#.+.#.#.#.u             +.#.#.#.#.+.#.#.#.#.#.#.#.",
"#.#.#.#.#.#.#.+.+.# + + @ a a a a a p @ + + # +.+.+.#.#.#.#.#.#.",
"#.#.#.#.#.#.+.e 9 - ; ; i G G G G G G ; ; ; - 9 e +.#.#.#.#.#.#.",
"#.#.#.#.#.u t & * Z G G G / H ) ] ] C G G G S * & t +.+.#.#.#.#.",
"#.#.#.#.+.u 0 p G J C G H M f _ ~ %.5 A G ( ( G a 0 y +.#.#.#.#.",
"#.#.#.+.u q ; G J 1 , [ 3 , 1 X.;.z < m G +.Y D G ; q +.+.+.#.#.",
"#.#.+.+.r = G G 4 : n 7.+.T ` 1.1.+.h 1 G +.b 4 G G = r +.+.+.#.",
"#.+.u y % l G I T , +.6.( o.2.6.6.:.8 V G 5 5 5 K G B % y U +.+.",
"#.#.u 0 a ( K E +.A -.6.E W >.5.5.%.5 P <.V 7 1 d J C p $ u +.#.",
"#.#.w - J I I I E C 1.8.+.T } -.-.#.s Y <.I _ 7 C F A D ; q #.#.",
"#.#.o G V l | ) F 1 +.3.+.Q ` 1.-.#.f @.G +.@.J ] | l V G o #.#.",
"#.n O G J V ,.R U 2 n G $.R h ;.~ $.f Q G +.b h %.<.g V G O +.#.",
"#.X S ( ~ ^ ^ g 1 : , G , , > j V 3 > , G #.b z *.&.I 8 J Z X #.",
"#.. G ) D 6 C M m 3 ! G %.R x ' ' %.f &.4.f 5 h T | F g D G . #.",
"#.. G D 4 f F ~ +.H | G | ' D O.O.| H 1.9.V g 3 k _ F 4 D G . #.",
"#.. G D f ^ I | ~ J | G | ' _ ,.,.I ' 1.8.| ' 8 V F h f D G . #.",
"#.. G ) R F ' ) ( 1 #.G #.#.$.&.=.#.! #.5.#.$.J F V > R ) G . #.",
"#.X S ] W 8 G E +.5 +.G #.Q } -.1.#.f %.G @.b 5 L G g ~ ] S X #.",
"#.+.O G C > V L +.3 +.G #.Q k | _ #.f $.G , , > 7 V ^ ' G O +.#.",
"#.+.o G G F P V f > 5 G f 5 1 j j f 1 5 G m v : 4 P I ) G o #.#.",
"#.#.e ; G ) ) C g > L G P ^ h ( _ W 5 K G +.s V J ) ( G - w #.#.",
"#.#.u $ p G G I ^ g E G E P F ' ' ~ A P G E 8 A ) G G p $ u #.#.",
"#.+.+.y % B G P T A C G F F D G G H J C G C C F I G B % t +.n #.",
"#.+.+.+.r * S G 4 : : G U c s K ( h : : G 3 j E G G = r +.+.+.#.",
"#.#.+.+.+.q ; G G < : G , > > 7 g : : : G U Y ) G ; q u +.+.#.#.",
"#.#.#.#.+.u 0 a G J C G C : : 7 7 _ ! S G ( ( G p 0 u u u #.#.#.",
"#.#.#.#.+.+.t & * Z G G G V V J J ( | G G G Z * & t +.+.#.#.#.#.",
"#.#.#.#.#.+.+.e 9 - ; ; i G G [ G G G ; ; ; - 9 e +.+.#.#.#.#.#.",
"#.#.#.#.#.#.+.+.+.# + + @ a a a p p a % + + # +.+.+.#.#.#.#.#.#.",
"#.*.#.#.#.#.#.+.+.+.#.#.+.            u #.#.#.+.+.#.#.#.#.#.#.#.",
"#.#.#.#.#.#.#.#.#.#.#.#.#.#.#.#.#.#.#.#.#.#.#.+.#.#.#.#.#.#.#.#."
};
