/* XPM */
static char *d836b123218749dc91a8a1183db595aa0ImQgouudwFtwyZN[] = {
/* columns rows colors chars-per-pixel */
"32 32 6 1 ",
"  c gray76",
". c gray77",
"X c #C5C5C5",
"o c gray78",
"O c #CACACA",
"+ c gray80",
/* pixels */
"++++++++++++++++++++++++++++++++",
"+++++++O O+++++++++++++XX+++++++",
"++++++O   O+++++++++++X  X++++++",
"+++++O     O+++++++++X    X+++++",
"++++O      X++++++++X      X++++",
"+++O        X++++++X        X+++",
"++O          X++++X          X++",
"+O            XO+X            X+",
"+              OX              X",
"+O            X++X            X+",
"++O          X++++X          X++",
"+++OX       X+++++OO        O+++",
"+++++X     OO+++++++O      OO+++",
"++++++X   X++++++++++O    O+++++",
"+++++++X X++++++++++++O  O++++++",
"++++++++X++++++++++++++OO+++++++",
"+++++++OO++++++++++++++OO+++++++",
"+++++++X X++++++++++++O  O++++++",
"++++++X   X++++++++++O    O+++++",
"+++++X     X++++++++O      O++++",
"++++X       O++++++O        O+++",
"+++X         O++++O          O++",
"++X           O++O            O+",
"+X             OO              O",
"+X             OO              O",
"++X           O++O            O+",
"+++X         O++++O          O++",
"++++X       OO+++++O        O+++",
"+++++X     O++++++++O      O++++",
"++++++X   XO+++++++++O    O+++++",
"+++++++X X++++++++++++O  O++++++",
"++++++++O++++++++++++++OO+++++++"
};
