/* XPM */
static char *d4095ca5542b4cccb7964430e767dd56Ynv4azzGa3Kkiqud[] = {
/* columns rows colors chars-per-pixel */
"32 32 82 1 ",
"  c #242333",
". c #282737",
"X c #31323F",
"o c #343542",
"O c #373844",
"+ c #3A3C47",
"@ c #373848",
"# c #3B3E49",
"$ c #3D404B",
"% c #464757",
"& c #464954",
"* c #4A4C5B",
"= c #4D505D",
"- c #50545F",
"; c #4D4E61",
": c #4E5163",
"> c #525565",
", c #575C67",
"< c #565A6A",
"1 c #595D6D",
"2 c #5A5F71",
"3 c #5F6271",
"4 c #636777",
"5 c #646A74",
"6 c #696F77",
"7 c #62677A",
"8 c #676C7D",
"9 c #696E7B",
"0 c #6B717C",
"q c #6B7181",
"w c #727785",
"e c #727985",
"r c #757C89",
"t c #797F8D",
"y c #7D8286",
"u c #7B828D",
"i c #7D8491",
"p c #808794",
"a c #848C96",
"s c #858D99",
"d c #8A939A",
"f c #91979E",
"g c #91999F",
"h c #8E97A2",
"j c #919AA1",
"k c #999FA5",
"l c #9BA4AB",
"z c #9EA9B2",
"x c #A3A3A5",
"c c #A3AAAE",
"v c #A9A9AC",
"b c #A4ACB1",
"n c #AEAEB2",
"m c #A6B1BA",
"M c #ABB6BD",
"N c #B0B0B2",
"B c #B4B7BB",
"V c #B1B8BC",
"C c #BABBBD",
"Z c #AFBBC3",
"A c #B2BDC4",
"S c #BCBEC2",
"D c #B5C0C7",
"F c #B7C2C9",
"G c #BBC6CC",
"H c #C3C3C3",
"J c #C6C5C8",
"K c #CCCCCC",
"L c #C6D0D5",
"P c #C8D2D7",
"I c #CCD6DA",
"U c #D1D1D2",
"Y c #D2DBDF",
"T c #D7DFE2",
"R c #D8E1E4",
"E c #DFE7E9",
"W c #E7E7E8",
"Q c #E3E9EC",
"! c #E8EDEF",
"~ c #EBEFF1",
"^ c #F3F3F3",
"/ c #FEFEFE",
/* pixels */
"KKKKKKKKKKKKKKKKKKKKKKKKKKKKKKKK",
"KKKKKKKKSKKKKKKKKKKKKKKHJKKKKKKK",
"KKKKKKKHHHKKKKKKKKKKKKJDHJKKKKKK",
"KKKxHH%akcbblkfdaadadavbg-HHvKKK",
"KKKH~Q<jmGGGGFAZVAZzMZGGb3Q!UKKK",
"KKKHQR.o@#######$$$o+$##O TQUKKK",
"KKKO$ 78q77qq7998887888897 $$JKK",
"KKHhbo8ssussssssasiissuss0 llHJK",
"KHDvG#8sr0pssssssassss9esq FVHHH",
"KKHvG#8s5&=:--1pa3-=--*1sq FVGHK",
"KKKdZ$8sr*W^^S1ps1n^^^;qsq FBJKK",
"KKKcG#7es4^//HwiirB///3ssq FVKKK",
"KKKaA$8ss3^/^Cy665v^//<ss0 DgKKK",
"KKKdZ#8ss8SJvfLDZZdxJJ3ss9 MpKKK",
"KKKaZ#8ssirr>pAZZZd*erissq MaKKK",
"KKKaZ#8ssssp<uPDZZd:issssq DgKKK",
"KKK0m#8ssqpa1uZZZs9>isprsq ZhKKK",
"KKKaZ#8ssiyr:uzMZje:ruissq ZhKKK",
"KKKaZ#8siflpwezzzzu0ilhus0 ZjKKK",
"KKKsZ#8tfGlu0=,,,,=9ujGlrq ZjKKK",
"KKKaZ#8edauiiq2233qiiiik0q ZjKKK",
"KKKdZ@8e5ap        ..iiq0q hhKKK",
"KKJaloqi<@@qq7qq8q33q@@:uq MgHKK",
"KHHdZ#8sieesu7eqww8uiueusq ZgHSK",
"KHHelO9ssssspq32330issuasq luHHK",
"KKJ&,.qsuisssaiiiiisssiasq 1*DJK",
"KKKH//          .   .     //UKKK",
"KKKHER&DYYYZZZZZZZZZPDYYG,YEUKKK",
"KKKvDVXuggggujjjhjjhggggu$BCNKKK",
"KKKKKKHHHHHKKKKKKKKKKKHHHHJKKKKK",
"KKKKKKKHGHKKKKKKKKKKKKKHHKKKKKKK",
"KKKKKKKKJKKKKKKKKKKKKKKKJKKKKKKK"
};
