/* XPM */
static char *_4e0e611350345a2abbd902d9b01d06aLprqbvJob96Ksrx6[] = {
/* columns rows colors chars-per-pixel */
"32 32 145 2 ",
"   c #141B1B",
".  c #231C1C",
"X  c #1F2222",
"o  c #252727",
"O  c #383537",
"+  c #373A3A",
"@  c #3C393B",
"#  c #422D20",
"$  c #5D3023",
"%  c #422B3A",
"&  c #41353C",
"*  c #413D3F",
"=  c #633C55",
"-  c #6C3F59",
";  c #364654",
":  c #3C4D59",
">  c #335A61",
",  c #3F6567",
"<  c #2E6576",
"1  c #2D697B",
"2  c #346474",
"3  c #396170",
"4  c #3E677A",
"5  c #356E7D",
"6  c #484345",
"7  c #4C4648",
"8  c #56494F",
"9  c #4B4D52",
"0  c #544950",
"q  c #5B4B53",
"w  c #475259",
"e  c #435761",
"r  c #405A65",
"t  c #525968",
"y  c #714360",
"u  c #7B4868",
"i  c #7F4B6B",
"p  c #7B4E69",
"a  c #765A77",
"s  c #45687D",
"d  c gray42",
"f  c #767777",
"g  c #A63D2C",
"h  c #80413F",
"j  c #B2432E",
"k  c #D14B34",
"l  c #CD5C39",
"z  c #DB693E",
"x  c #A24142",
"c  c #B04646",
"v  c #825370",
"b  c #8E5378",
"n  c #92557B",
"m  c #90597A",
"M  c #B65264",
"N  c #BF5361",
"B  c #B35B7A",
"V  c #87687C",
"C  c #876B7C",
"Z  c #C57340",
"A  c #C37741",
"S  c #EC8C4D",
"D  c #EF914F",
"F  c #3D7480",
"G  c #417781",
"H  c #8E5E80",
"J  c #995981",
"K  c #A25D87",
"L  c #A15E88",
"P  c #A35F8A",
"I  c #8C6386",
"U  c #8E6D81",
"Y  c #966F87",
"T  c #877882",
"R  c #8C7D86",
"E  c #9D7990",
"W  c #A5608B",
"Q  c #A5618C",
"!  c #A6618C",
"~  c #A8658F",
"^  c #A8668F",
"/  c #AE6E95",
"(  c #A37491",
")  c #A37E95",
"_  c #B2759A",
"`  c #B3779C",
"'  c #B5799E",
"]  c #B87DA1",
"[  c #518588",
"{  c #8D8D8D",
"}  c #938E91",
"|  c #909191",
" . c #9A999A",
".. c #AB849C",
"X. c #AD869E",
"o. c #B980A3",
"O. c #B48AA4",
"+. c #A7A7A7",
"@. c #B1B1B1",
"#. c gray73",
"$. c #C28CAD",
"%. c #C793B3",
"&. c #C496B2",
"*. c #C894B4",
"=. c #CA96B6",
"-. c #C99AB7",
";. c #CE9CBB",
":. c #CE9EBB",
">. c #CF9FBC",
",. c #D09EBC",
"<. c #D19FBE",
"1. c #D0A0BD",
"2. c #D1A0BE",
"3. c #D2A1BF",
"4. c #D3A2C0",
"5. c #D3A3C0",
"6. c #D3A3C1",
"7. c #D4A3C1",
"8. c #D4A6C2",
"9. c #D5A7C3",
"0. c #D6ABC5",
"q. c #D6ABC6",
"w. c #D7AEC7",
"e. c #D8AFC8",
"r. c #D9B2CA",
"t. c #DAB5CC",
"y. c #DBB8CE",
"u. c #DCBAD0",
"i. c #DDBBD0",
"p. c #DDBCD1",
"a. c gray76",
"s. c #C5C5C5",
"d. c gray78",
"f. c #CACACA",
"g. c gray80",
"h. c #E1C4D6",
"j. c #E1C5D7",
"k. c #E1C6D8",
"l. c #E2C6D8",
"z. c #E5CEDD",
"x. c #E6D1DF",
"c. c #E7D2E0",
"v. c #E8D4E1",
"b. c #EDE0EA",
"n. c #EEE2EB",
/* pixels */
"g.g.g.g.g.g.g.g.g.g.g.g.g.g.g.g.g.g.g.g.g.g.g.g.g.g.g.g.g.g.g.g.",
"g.g.g.g.g.g.g.f.a.g.g.g.g.g.g.g.g.g.g.g.g.g.g.s.s.g.g.g.g.g.g.g.",
"g.g.g.g.g.g.f.a.a.a.f.g.g.g.g.g.g.g.g.g.g.g.s.a.a.s.g.g.g.g.g.g.",
"g.g.g.g.+.+ E 4.3.7.3.7.3.3.7.3.7.3.7.3.U     f #.a.s.g.g.g.g.g.",
"g.g.g.+.} C O.4.7.3.7.3.7.3.7.3.3.7.7.2...V V T  .@.a.s.g.g.g.g.",
"g.g.g.+ C -.2.4.3.7.3.7.3.7.3.7.7.3.3.7.2.:.2...8 | a.a.s.g.g.g.",
"g.g.f.u ( >.4.4.7.3.7.3.7.3.7.3.e.l.i.7.p.j.e.&.) R { { { s.g.g.",
"g.f.a.W ] <.4.4.3.7.3.7.3.7.3.7.y.n.z.7.x.b.y.2.4.E       a.s.g.",
"g.a.a.W ] <.7.7.3.7.3.7.7.3.7.3.p.b.z.7.x.b.y.3.4.E       a.a.d.",
"g.f.a.W ` %.;.3.7.3.7.3.3.7.3.7.r.v.j.7.j.v.r.,.=.Y       a.s.g.",
"g.g.f.W ^ / $.7.7.3.3.7.7.3.3.7.0.e.0.2.q.r.7.=._ v       s.g.g.",
"g.g.g.W W P ' $.$.$.$.$.$.$.$.$.$.$.$.$.$.$.$.o.^ u       g.g.g.",
"g.g.g.W W W Q Q W Q ! ! ! ! ! ! W ! ! ! Q Q Q Q W u       g.g.g.",
"g.g.g.W W W W W W W W W W W W W W W W W W W W W W u       g.g.g.",
"g.g.g.W W W W W W W W W W W W W W W W W W W W W W u       g.g.g.",
"g.g.g.W W W W W W W W W W W W W W W W W W W W W W u       g.g.g.",
"g.g.g.P W W W W W W W W W W W W W W W W W W W W W u       g.g.g.",
"g.g.g.P W W W W W W W W W W W W W W W W W W W W W u       g.g.g.",
"g.g.g.v b L W W W W W W W W W W W W W W W W W W W u       g.g.g.",
"g.g.g.. - L W W W W W W W W W W W W W W W W W W W u       g.g.g.",
"g.g.g.g c N B W W W W W W W W W W W W W W W W W P u       g.g.g.",
"g.g.g.k k k M J L W W W W W W W W W W W W W W L J y       g.g.g.",
"g.g.s.k k k x = n W W W ^ Q ! ! W W W W W W W n = %       a.f.g.",
"g.a.w.z l j h ; a I I I I m m m m m m m m m m p & o       a.a.f.",
"g.a.a.D A $ : < 5 s s s s t q q q q q q q q q 8 7 O       a.a.f.",
"g.g.d.D A # , 5 5 1 1 1 1 3 r > r r r > > w 9 6 @ d { { { a.f.g.",
"g.g.g.D A # , [ F 1 1 1 1 1 1 1 1 1 1 1 F 2 w * o { a.a.a.f.g.g.",
"g.g.g.D A # , [ F 1 1 1 1 1 1 1 1 1 1 1 1 2 w *   } a.a.f.g.g.g.",
"g.g.g.D A # , [ F 1 1 1 1 1 1 1 1 1 1 1 1 2 w * o { a.f.g.g.g.g.",
"g.g.g.g.f.f.a.a.a.a.s.g.g.g.g.g.g.g.g.g.g.f.a.a.a.a.f.g.g.g.g.g.",
"g.g.g.g.g.g.g.s.r.a.g.g.g.g.g.g.g.g.g.g.g.g.f.a.a.d.g.g.g.g.g.g.",
"g.g.g.g.g.g.g.g.f.g.g.g.g.g.g.g.g.g.g.g.g.g.g.f.f.f.g.g.g.g.g.g."
};
