/* XPM */
static char *d4a1b48837b44e6dae94ffab85454acdJ2WpebDwFLfKJpG5[] = {
/* columns rows colors chars-per-pixel */
"32 32 167 2 ",
"   c #141B1B",
".  c #3C201D",
"X  c #1D1D20",
"o  c #1B2929",
"O  c #272428",
"+  c #383637",
"@  c #3F3B3D",
"#  c #3E2A37",
"$  c #53251F",
"%  c #5C2720",
"&  c #5F3C26",
"*  c #583633",
"=  c #662A22",
"-  c #6E2C23",
";  c #7A2F24",
":  c #733826",
">  c #4E3143",
",  c #5E3951",
"<  c #603A52",
"1  c #304445",
"2  c #3C5E6C",
"3  c #39616F",
"4  c #2D697B",
"5  c #356C7B",
"6  c #4B4B4C",
"7  c #4B4648",
"8  c #554D4E",
"9  c #4B4D52",
"0  c #555154",
"q  c #5A4A52",
"w  c #665057",
"e  c #475A66",
"r  c #7C4968",
"t  c #7B5F71",
"y  c #70566A",
"u  c #446E6F",
"i  c #5F6161",
"p  c #446E74",
"a  c #426979",
"s  c #577475",
"d  c #4B757B",
"f  c #71616B",
"g  c #7F6F79",
"h  c #7D7E7E",
"j  c #7B7177",
"k  c #873326",
"l  c #8D3829",
"z  c #923A2E",
"x  c #A43C2B",
"c  c #9C5E35",
"v  c #9C5331",
"b  c #84472C",
"n  c #AF402D",
"m  c #B4412E",
"M  c #B9432F",
"N  c #AF4B3F",
"B  c #BC4530",
"V  c #9F6137",
"C  c #AA673A",
"Z  c #B66F3D",
"A  c #B9703E",
"S  c #C64732",
"D  c #C64B33",
"F  c #CD4A33",
"G  c #D14B35",
"H  c #D14D39",
"J  c #C85837",
"K  c #C95737",
"L  c #D45C3A",
"P  c #D1503F",
"I  c #C5673C",
"U  c #84504C",
"Y  c #9F5D56",
"T  c #AD524D",
"R  c #AC5956",
"E  c #91644C",
"W  c #80546E",
"Q  c #8E5879",
"!  c #835571",
"~  c #9A5873",
"^  c #BD5C6F",
"/  c #AF5C7F",
"(  c #B35A7A",
")  c #D15141",
"_  c #C95051",
"`  c #D15C58",
"'  c #DC6B43",
"]  c #CC7A44",
"[  c #DA7647",
"{  c #D56855",
"}  c #E27644",
"|  c #E47E47",
" . c #E47F50",
".. c #C15766",
"X. c #C75E61",
"o. c #C66164",
"O. c #D1686C",
"+. c #D26E75",
"@. c #CB7A74",
"#. c #C77172",
"$. c #D47372",
"%. c #DC8649",
"&. c #D58147",
"*. c #E78249",
"=. c #EC8D4E",
"-. c #E58B4D",
";. c #EF914F",
":. c #E08F5D",
">. c #DF9163",
",. c #3F7580",
"<. c #457A83",
"1. c #4A7E84",
"2. c #537F81",
"3. c #9C5B84",
"4. c #A95F87",
"5. c #A75F89",
"6. c #857B81",
"7. c #967389",
"8. c #99758B",
"9. c #A5608B",
"0. c #B06387",
"q. c #AA7F9A",
"w. c #B17298",
"e. c #AA6891",
"r. c #B77DA1",
"t. c #D27580",
"y. c #D27F90",
"u. c #C37C97",
"i. c #508285",
"p. c #548789",
"a. c #8B8087",
"s. c #9A9A9A",
"d. c gray57",
"f. c #A48196",
"g. c #A99891",
"h. c #BC85A6",
"j. c #B58CA5",
"k. c #BF93AE",
"l. c #A4A4A4",
"z. c #AFAFAF",
"x. c #BAB1AE",
"c. c #B6B6B6",
"v. c gray",
"b. c #D28294",
"n. c #D38A9D",
"m. c #C18BAC",
"M. c #CB91AE",
"N. c #C899B6",
"B. c #CB97B7",
"V. c #D399B5",
"C. c #D29FBC",
"Z. c #D397B1",
"A. c #D3A1BE",
"S. c #D3A3C0",
"D. c #D7ADC7",
"F. c #DBB5CC",
"G. c #DDBBD0",
"H. c #C3C3C3",
"J. c #CCCCCC",
"K. c #DFC1D4",
"L. c #E0C2D5",
"P. c #E2C7D8",
"I. c #E3CADA",
"U. c #E6D1DF",
"Y. c #E7D3E0",
"T. c #ECDDE8",
"R. c #F1E8EF",
/* pixels */
"J.J.J.J.J.J.J.J.J.J.J.J.J.J.J.J.J.J.J.J.J.J.J.J.J.J.J.J.J.J.J.J.",
"J.J.J.J.J.J.J.J.H.H.J.J.J.J.J.J.J.J.J.J.J.J.J.A.J.J.J.J.J.J.J.J.",
"J.J.J.J.J.J.J.H.H.H.J.J.J.J.J.J.J.J.J.J.J.J.J.H.H.H.J.J.J.J.J.J.",
"J.J.J.J.J.J.H.H.H.z.i                       X 2.v.H.H.J.J.J.J.J.",
"J.J.J.J.J.H.c.l.l.s.j t t t t t g t t t t t t 6.l.c.H.H.J.J.J.J.",
"J.J.J.J.v.H.s.6 6 f j.N.N.N.N.N.N.N.N.N.N.N.N.q.0 s.H.H.J.J.J.J.",
"J.J.J.H.c.s.6.8.7.q.N.S.A.S.S.S.C.S.S.S.S.S.S.k.8.a.s.c.H.H.J.J.",
"J.J.H.v.l.0 8.S.S.D.S.S.S.S.S.S.C.S.C.S.S.S.S.S.A.7.8 l.v.H.H.J.",
"J.H.H.h Q s.k.S.K.I.D.G.U.G.S.A.S.S.S.S.S.S.S.S.A.f.W j h H.H.H.",
"J.H.H.  t N.S.D.U.T.F.K.R.P.S.S.A.S.S.A.V.V.C.C.N.h.3.<   H.H.J.",
"J.J.J.  t N.S.D.U.T.F.K.R.P.S.S.S.S.A.A.y.t.Z.M.w.e.3.<   J.J.J.",
"J.J.J.  y h.B.S.K.I.D.F.U.G.S.A.S.S.Z.n.O.` y.u.e.9.3.<   J.J.J.",
"J.J.J.  < 3.h.S.S.S.S.S.S.S.S.S.C.S.b.) H H P X.9.9.3.<   J.J.J.",
"J.J.J.  < 3.w.h.h.m.C.S.S.S.S.S.V.b.$.} } } } { ..( 3.<   J.J.J.",
"J.J.J.  < 3.9.9.9.w.M.B.V.C.V.V.n.{ | ;.;.;.;.| L ^ 3.<   J.J.J.",
"J.J.J.  < 3.9.9.9.0.+.+.+.+.+.+.$. .=.;.;.;.;.=.*.#.3.<   J.J.J.",
"J.J.J.  < 3.9.9.9./ _ D m n B L } =.;.=.&.&.&.%.;.>.3., X J.J.J.",
"J.J.J.  < 3.9.9.9./ _ n % % : ] =.=.;.=.C & & V -.#.3.,   J.J.J.",
"J.J.J.  < 3.9.9.9./ _ J C C A %.;.;.;.=.&.C C I -.@.3.,   J.J.J.",
"J.J.J.  < 3.9.9.9./ _ ' ;.;.;.;.=.=.=.=.;.;.;.;.-.@.3.,   J.J.J.",
"J.J.J.  < 3.9.9.9.9.( o.' *.-.A V c c V [ =.[ I V U , #   J.J.J.",
"J.J.J.  < 3.9.9.9.9.9.( _ [ [ v = = = : I | J n - = % $   J.J.J.",
"J.J.H.  < 3.9.9.9.9.9.0./ o.L D S M M M J J l l B B x -   H.J.J.",
"J.H.H.  > r Q 9.9.9.9.3.Q ~ R R R R T N R Y * k F H S :   H.v.J.",
"J.H.H.  X O r 9.9.9.9.Q q e a a a 5 0 8 s s 1 k F F S ;   H.v.J.",
"J.J.H.  O + w W r t W y e a <.<.<.i.d s p.i.u w z J [ b   H.J.J.",
"J.J.J.6 9 6 7 7 6 9 9 e 5 <.p.p.p.p.p.p.p.p.p.u o Z -.E 7 J.J.J.",
"J.J.J.c.d.1 * 6 e 3 3 a i.i.p.p.p.p.p.p.p.p.p.u o Z >.g.z.J.J.J.",
"J.J.J.J.z.9 + 6 2 4 4 ,.p.p.p.p.p.p.p.p.p.p.p.u o Z >.z.J.J.J.J.",
"J.J.J.J.J.J.H.F.H.H.H.J.J.J.J.J.J.J.J.J.J.J.v.H.H.H.J.J.J.J.J.J.",
"J.J.J.J.J.J.J.H.H.H.J.J.J.J.J.J.J.J.J.J.J.J.J.H.H.H.J.J.J.J.J.J.",
"J.J.J.J.J.J.J.J.J.J.J.J.J.J.J.J.J.J.J.J.J.J.J.J.J.J.J.J.J.J.J.J."
};
