/* XPM */
static char *_0d37d9859614ba7d0972ff420f98220Jz6q64hAOb54ViXT[] = {
/* columns rows colors chars-per-pixel */
"32 32 172 2 ",
"   c #141B1B",
".  c #301E1C",
"X  c #1D2121",
"o  c #352631",
"O  c #3E2A37",
"+  c #353838",
"@  c #3A3C3C",
"#  c #3C3539",
"$  c #262728",
"%  c #40211D",
"&  c #403C3E",
"*  c #672A22",
"=  c #742D23",
"-  c #7A3D36",
";  c #784A2C",
":  c #7C553F",
">  c #5C384F",
",  c #5D3950",
"<  c #463C43",
"1  c #2C4748",
"2  c #2D697B",
"3  c #356676",
"4  c #494546",
"5  c #4B4C51",
"6  c #5A4A52",
"7  c #575251",
"8  c #4E4D53",
"9  c #6B405B",
"0  c #6A505F",
"q  c #7A4B4A",
"w  c #415965",
"e  c #465964",
"r  c #7A4967",
"t  c #7B4C69",
"y  c #725A68",
"u  c #7C5E70",
"i  c #6D5C6A",
"p  c #49686B",
"a  c #5F6161",
"s  c #426C76",
"d  c #4D797B",
"f  c #527779",
"g  c #696969",
"h  c #6F6370",
"j  c #797979",
"k  c #7E7078",
"l  c #7B696C",
"z  c #873326",
"x  c #9D3B2B",
"c  c #A93E2C",
"v  c #9A5D35",
"b  c #955B34",
"n  c #9B453A",
"m  c #B9432F",
"M  c #AC4D31",
"N  c #BB4330",
"B  c #BF4B3B",
"V  c #A85734",
"C  c #BF5134",
"Z  c #B06B3C",
"A  c #BD6D3D",
"S  c #BC723F",
"D  c #AD693B",
"F  c #D14B34",
"G  c #D65A39",
"H  c #DA693E",
"J  c #D9673E",
"K  c #BF5246",
"L  c #BC544B",
"P  c #966F5C",
"I  c #AC6C43",
"U  c #BE7340",
"Y  c #885073",
"T  c #8F5479",
"R  c #8E5879",
"E  c #895575",
"W  c #96577E",
"Q  c #9B5B7E",
"!  c #A04F68",
"~  c #B85867",
"^  c #B55A78",
"/  c #89697D",
"(  c #866A7B",
")  c #87727F",
"_  c #BE717E",
"`  c #C5545E",
"'  c #D96F4E",
"]  c #C27641",
"[  c #DB7549",
"{  c #C55E64",
"}  c #C9716F",
"|  c #C1737C",
" . c #D47B6F",
".. c #928079",
"X. c #B68770",
"o. c #D68247",
"O. c #D9844A",
"+. c #E68048",
"@. c #E58A4C",
"#. c #EB8D4D",
"$. c #EF914F",
"%. c #EC8F53",
"&. c #E88D59",
"*. c #DE8664",
"=. c #D5806D",
"-. c #DA8368",
";. c #3E7580",
":. c #467A83",
">. c #9F5D86",
",. c #975880",
"<. c #A95F87",
"1. c #A25E88",
"2. c #B05D80",
"3. c #916A82",
"4. c #8E7C87",
"5. c #877F84",
"6. c #9C788F",
"7. c #9E778F",
"8. c #9D7990",
"9. c #A5608B",
"0. c #AB658A",
"q. c #A2698D",
"w. c #B56B83",
"e. c #AB6B93",
"r. c #B16B90",
"t. c #B67B9F",
"y. c #B17399",
"u. c #B77CA0",
"i. c #B87FA2",
"p. c #D27885",
"a. c #4F8287",
"s. c #538487",
"d. c #548789",
"f. c #7F8080",
"g. c #8C8A8C",
"h. c #939394",
"j. c #9E9D9E",
"k. c #9A9897",
"l. c #BA9D91",
"z. c #AC849C",
"x. c #B289A2",
"c. c #BD86A8",
"v. c #BC84A7",
"b. c #BA90AA",
"n. c #9FA0A0",
"m. c gray65",
"M. c #ACACAC",
"N. c #B3B3B3",
"B. c #BBBBBB",
"V. c #CA839B",
"C. c #C189A9",
"Z. c #D393AC",
"A. c #C590B1",
"S. c #C799B5",
"D. c #CE9DBA",
"F. c #CA99B7",
"G. c #D09EBD",
"H. c #D2A0BE",
"J. c #D3A3C0",
"K. c #D5A8C4",
"L. c #D8AFC8",
"P. c #DBB6CD",
"I. c #DEBED2",
"U. c #C3C3C3",
"Y. c #CCCCCC",
"T. c #DFC0D3",
"R. c #E1C4D6",
"E. c #E3CADA",
"W. c #E6D0DF",
"Q. c #E7D3E1",
"!. c #ECDDE8",
"~. c #F0E6EE",
/* pixels */
"Y.Y.Y.Y.Y.Y.Y.Y.Y.Y.Y.Y.Y.Y.Y.Y.Y.Y.Y.Y.Y.Y.Y.Y.Y.Y.Y.Y.Y.Y.Y.Y.",
"Y.Y.Y.Y.Y.Y.Y.Y.U.Y.Y.Y.Y.Y.Y.Y.Y.Y.Y.Y.Y.Y.Y.U.Y.Y.Y.Y.Y.Y.Y.Y.",
"Y.Y.Y.Y.Y.Y.Y.U.U.U.Y.Y.Y.Y.Y.Y.Y.Y.Y.Y.Y.Y.U.U.U.U.Y.Y.Y.Y.Y.Y.",
"Y.Y.Y.Y.Y.Y.U.U.U.M.a                     & n.U.U.U.U.Y.Y.Y.Y.Y.",
"Y.Y.Y.Y.U.U.N.j.j.h.3.( / / / / ( ( 3.( / ( g.j.n.M.B.U.Y.Y.Y.Y.",
"Y.Y.Y.Y.U.U.h.+ + y b.D.G.G.D.G.D.D.D.D.D.S.( + + f.B.U.U.Y.Y.Y.",
"Y.Y.Y.U.M.h.5.7.7.z.F.J.G.J.J.J.J.J.J.J.J.D.x.8.8.4.g.M.U.U.Y.Y.",
"Y.Y.U.B.k.< 7.D.G.J.J.J.J.J.J.J.J.J.K.K.K.J.K.K.K.x.6 g.B.U.Y.Y.",
"Y.B.U.j k Y 3.i.F.J.J.J.J.J.J.J.J.J.P.Q.I.K.R.E.L.S.x.4.j P.B.U.",
"Y.Y.U.  9 1.9.e.C.F.G.J.J.J.G.J.J.J.I.~.E.K.Q.!.P.J.J.6.  U.U.Y.",
"Y.Y.Y.  9 1.9.9.r.i.F.J.J.J.J.J.J.J.I.~.E.K.Q.!.P.G.J.6.  U.Y.Y.",
"Y.Y.Y.  9 9.9.9.<.r.i.Z.G.J.J.J.J.J.P.W.I.K.T.E.L.D.A.3.  Y.Y.Y.",
"Y.Y.Y.  9 >.9.9.9.2.{ p.J.J.J.J.J.G.J.K.K.G.K.K.J.A.e.t   Y.Y.Y.",
"Y.Y.Y.k.5.t ! ~ }  .'  .C.C.C.F.J.J.J.J.J.G.A.c.v.u.e.r   Y.Y.Y.",
"Y.Y.Y.Y.m.@ x G [ $.$.-.w.<.r.A.G.G.G.G.G.D.u.9.1.1.9.t   Y.Y.Y.",
"Y.Y.Y.Y.m.@ V @.$.$.$.%. .} 9.y.u.u.u.i.u.u.e.9.9.9.9.y   Y.Y.Y.",
"Y.Y.Y.N.k.: S $.@.o.O.O.$. ._ 0.1.9.9.9.9.9.9.1.9.1.,.u g Y.Y.Y.",
"Y.Y.Y.g P o.@.$.D ; ; Z #.&.*._ 9.9.9.9.9.9.9.9.1.W , g.B.Y.Y.Y.",
"Y.Y.Y.  v $.$.$.S v v S #.$.%.=.p.0.9.9.9.9.9.9.1.Y o h.Y.Y.Y.Y.",
"Y.Y.Y.  v @.$.$.$.@.@.#.$.$.$.%.-.w.9.9.9.9.9.9.9.Y o h.Y.Y.Y.Y.",
"Y.Y.Y.k.) I Z Z Z A H @.$.$.$.+.' ~ ^ 1.1.1.9.9.9.,.t ( h.Y.Y.Y.",
"Y.Y.Y.U.j.+ . % % = m J @.#.#.J F F ` <.1.<.9.9.9.9.1.t   Y.Y.Y.",
"Y.Y.U.U.j.+ = c c c z M J H [ G F F { <.1.9.9.9.9.9.3.t   U.Y.Y.",
"Y.U.U.U.j.+ c F F N * ; L K B F K K ~ W 1.1.9.9.1.1.R 9   B.P.Y.",
"Y.Y.U.U.n.+ x F F m * 7 j l q y h h i 0 E 0.9.<.9.W > &   U.U.Y.",
"Y.Y.U.U.n.+ V J C n 7 p s.f p s 3 :.3 e y R E Y R r & $   H.Y.Y.",
"Y.Y.Y.U.j.+ D +.v 4 d d.d.d.s.s.d.d.:.3 e 6 6 6 6 5 4 #   Y.Y.Y.",
"Y.Y.Y.Y.N.h.X.@.b 1 d d.d.d.d.d.d.d.s.:.s w e 3 5 4 # g h.Y.Y.Y.",
"Y.Y.Y.Y.Y.U.l.@.b 1 d d.d.d.d.d.d.d.d.d.d 2 2 3 e @ X h.Y.Y.Y.Y.",
"Y.Y.Y.Y.Y.Y.U.U.U.U.U.Y.Y.Y.Y.Y.Y.Y.Y.Y.Y.Y.B.U.U.B.Y.Y.Y.Y.Y.Y.",
"Y.Y.Y.Y.Y.Y.Y.U.U.Y.Y.Y.Y.Y.Y.Y.Y.Y.Y.Y.Y.Y.Y.U.U.U.Y.Y.Y.Y.Y.Y.",
"Y.Y.Y.Y.Y.Y.Y.Y.Y.Y.Y.Y.Y.Y.Y.Y.Y.Y.Y.Y.Y.Y.Y.Y.Y.Y.Y.Y.Y.Y.Y.Y."
};
