/* XPM */
static char *_96a64f463a74bede413eacb7fa6a664GCmtfZIGvvLSodSa[] = {
/* columns rows colors chars-per-pixel */
"32 32 166 2 ",
"   c #141B1B",
".  c #222626",
"X  c #2B282C",
"o  c #3C2E38",
"O  c #393C3C",
"+  c #373537",
"@  c #43211E",
"#  c #572620",
"$  c #412B3A",
"%  c #694128",
"&  c #7F453E",
"*  c #423F40",
"=  c #5A374D",
"-  c #683F59",
";  c #3C5E6B",
":  c #2D697B",
">  c #30697A",
",  c #304E4F",
"<  c #4E494B",
"1  c #4B4648",
"2  c #54434E",
"3  c #4C4C50",
"4  c #534A50",
"5  c #575A5A",
"6  c #4D5A5A",
"7  c #6D425D",
"8  c #684C57",
"9  c #435761",
"0  c #465864",
"q  c #5E5B68",
"w  c #7B4868",
"e  c #754764",
"r  c #615F6B",
"t  c #78586D",
"y  c #466B73",
"u  c #5C6675",
"i  c #477478",
"p  c #527779",
"a  c #6E6565",
"s  c #796571",
"d  c #7A6872",
"f  c #777878",
"g  c #717272",
"h  c #853326",
"j  c #A33C2B",
"k  c #8E473F",
"l  c #8A5431",
"z  c #855435",
"x  c #A4442E",
"c  c #B5412E",
"v  c #B9432F",
"b  c #AC4C31",
"n  c #B74E39",
"m  c #AC5834",
"M  c #A16237",
"N  c #A6653A",
"B  c #B5683B",
"V  c #BD723F",
"C  c #D14B34",
"Z  c #D35337",
"A  c #D9633C",
"S  c #D76C3F",
"D  c #B7544B",
"F  c #B55551",
"G  c #9B6C53",
"H  c #B97140",
"J  c #B86157",
"K  c #824D6E",
"L  c #875674",
"P  c #8A5174",
"I  c #8E5879",
"U  c #94597D",
"Y  c #A34F66",
"T  c #BE5568",
"R  c #B45B7B",
"E  c #A65768",
"W  c #86677B",
"Q  c #856E7D",
"!  c #83737D",
"~  c #BE717E",
"^  c #D76C48",
"/  c #C97A43",
"(  c #D17F45",
")  c #E27949",
"_  c #C25B66",
"`  c #CC746D",
"'  c #D37F6E",
"]  c #D67C66",
"[  c #D27D7B",
"{  c #CC5351",
"}  c #92817A",
"|  c #BB8C75",
" . c #DC8649",
".. c #E78249",
"X. c #E3894B",
"o. c #EB8C4D",
"O. c #E88449",
"+. c #EF914F",
"@. c #E98D57",
"#. c #E78C5A",
"$. c #EF9150",
"%. c #DC8466",
"&. c #D6816B",
"*. c #447A82",
"=. c #4E7E80",
"-. c #407681",
";. c #9C5B84",
":. c #A05D87",
">. c #A45F8A",
",. c #8D7D87",
"<. c #877981",
"1. c #9D7990",
"2. c #A5608B",
"3. c #AA648A",
"4. c #A46B8E",
"5. c #B06786",
"6. c #B96D81",
"7. c #AB6A92",
"8. c #B36D90",
"9. c #A37C94",
"0. c #B1749A",
"q. c #B57A9E",
"w. c #D27D8C",
"e. c #4E8287",
"r. c #548789",
"t. c #708181",
"y. c #8D8E8E",
"u. c #858183",
"i. c #99928F",
"p. c #928F91",
"a. c #939293",
"s. c #9B9B9B",
"d. c #BD9B8D",
"f. c #AD859E",
"g. c #BB83A5",
"h. c #BE89AA",
"j. c #BB90AB",
"k. c #9FA0A0",
"l. c #A2A2A2",
"z. c #AAAAAA",
"x. c #B1B1B1",
"c. c #BBBCBC",
"v. c #CD849A",
"b. c #C18AAB",
"n. c #C094AF",
"m. c #D394AD",
"M. c #C48FB0",
"N. c #CB98B7",
"B. c #CD9CBB",
"V. c #C595B3",
"C. c #D09EBD",
"Z. c #D2A1BF",
"A. c #D3A2C0",
"S. c #D6ABC5",
"D. c #DAB4CB",
"F. c #DCB9CF",
"G. c #DDBCD1",
"H. c #C3C3C3",
"J. c #CCCCCC",
"K. c #E0C3D6",
"L. c #E2C7D8",
"P. c #E3C9D9",
"I. c #E6D0DE",
"U. c #E8D5E2",
"Y. c #EAD9E4",
"T. c #F1E8EF",
/* pixels */
"J.J.J.J.J.J.J.J.J.J.J.J.J.J.J.J.J.J.J.J.J.J.J.J.J.J.J.J.J.J.J.J.",
"J.J.J.J.J.J.J.J.H.J.J.J.J.J.J.J.J.J.J.J.J.J.J.H.H.J.J.J.J.J.J.J.",
"J.J.J.J.J.J.J.H.H.H.J.J.J.J.J.J.J.J.J.J.J.J.H.D.H.H.J.J.J.J.J.J.",
"J.J.J.J.J.J.H.H.H.z.5                     6 k.H.H.H.J.J.J.J.J.J.",
"J.J.J.J.J.H.x.s.k.a.! W W W W W W W W W W ! p.k.k.x.H.H.J.J.J.J.",
"J.J.J.J.c.H.a.O O t j.B.B.B.B.B.B.B.B.B.B.n.s O O y.H.H.H.J.J.J.",
"J.J.J.H.x.a.,.1.1.f.B.A.A.A.A.Z.A.A.A.A.A.B.f.1.1.,.y.x.H.H.J.J.",
"J.J.H.c.s.4 9.A.S.S.A.A.S.A.A.A.A.A.A.Z.A.A.A.A.Z.1.+ a.c.H.J.J.",
"J.H.H.f <.f.V.S.L.P.S.F.U.G.Z.A.A.A.A.A.A.A.A.N.g.4.P d f H.H.H.",
"J.H.H.  W B.A.S.U.Y.D.L.T.L.A.A.A.A.Z.A.A.A.N.b.7.2.2.7   H.H.J.",
"J.J.J.  W B.Z.S.U.Y.D.K.T.P.A.A.Z.A.A.Z.Z.B.g.7.2.2.:.7   H.J.J.",
"J.J.J.  t h.N.S.L.L.S.D.I.F.Z.A.A.A.A.A.m.v.8.2.2.2.2.7   J.J.J.",
"J.J.J.  7 :.h.A.A.A.A.A.A.A.A.A.A.Z.A.A.w.{ R >.2.2.>.e   J.J.J.",
"J.J.J.  7 ;.0.g.h.b.B.A.A.A.Z.A.B.b.g.g.[ ) ] ` _ Y e u.k.J.J.J.",
"J.J.J.  7 ;.2.2.2.0.M.B.C.B.C.B.M.7.3.5.&.+.+...A x . l.J.J.J.J.",
"J.J.J.  - ;.2.2.2.7.0.q.q.q.q.q.0.3.6.%.@.+.+.o...B . l.J.J.J.J.",
"J.J.J.g s I :.>.2.2.2.2.>.>.>.:.3.6.' $.X. . . .+./ z i.x.J.J.J.",
"J.J.J.c.s.= K >.2.2.2.2.>.>.>.:.6.%.@.$.N % % l X.X. .G 5 J.J.J.",
"J.J.J.J.z.O w >.2.2.3.2.>.>.3.w.' @.$.$./ M M S X.+.+.M   J.J.J.",
"J.J.J.J.z.O w >.2.2.3.>.>.>.5.' $.$.$.$.+.+.+.+.+.+.+.M   J.J.J.",
"J.J.J.p.=.Y ;.>.2.2.2.2.2.R _ ^ ) +.+.+.) S Z N N M M } k.J.J.J.",
"J.J.J.  - >.>.>.2.2.2.2.>.T C C A O.o.o.S C h # # @ . s.H.J.J.J.",
"J.J.H.  - ;.2.3.2.2.2.2.>._ C C Z A A ^ b % j j b h . s.H.H.J.J.",
"J.H.H.  = P ;.2.2.2.2.;.U E F F D n D F & # v C C j . s.H.H.H.J.",
"J.J.D.  . o w 2.3.3.2.I 5 r u u a 8 a t.6 # c C C j . s.H.H.H.H.",
"J.J.H.  . + 7 L L L L t 9 y -.*.i y p r.i 5 k b S m . s.H.H.J.J.",
"J.J.J.. + 1 3 < < < 3 6 > *.r.r.r.r.r.r.r.=., l X.V X s.H.H.J.J.",
"J.J.J.l.u.O 1 3 9 ; ; > *.=.r.r.r.r.r.r.r.=., l X.| s.x.J.J.J.J.",
"J.J.J.J.z.O + < ; > > *.r.r.r.r.r.r.r.r.r.=., l X.d.H.J.J.J.J.J.",
"J.J.J.J.J.J.H.H.H.H.H.J.J.J.J.J.J.J.J.J.J.J.H.H.H.H.J.J.J.J.J.J.",
"J.J.J.J.J.J.J.H.H.H.J.J.J.J.J.J.J.J.J.J.J.J.J.H.H.H.J.J.J.J.J.J.",
"J.J.J.J.J.J.J.J.H.J.J.J.J.J.J.J.J.J.J.J.J.J.J.J.J.J.J.J.J.J.J.J."
};
